<svg width="98" height="25" viewBox="0 0 98 25" fill="none" xmlns="http://www.w3.org/2000/svg">
<path d="M19.8447 13.4247C19.0377 13.3686 18.2268 13.3111 17.4185 13.3097C15.8869 13.3056 14.3526 13.333 12.821 13.3659C11.9915 13.385 11.1633 13.4288 10.3364 13.4932C9.33436 13.5726 8.33496 13.6752 7.33556 13.7861C4.91602 14.053 2.52966 14.5048 0.176477 15.144C0.168514 15.1468 0.160551 15.1495 0.152588 15.1523C0.191078 15.3439 0.236203 15.5356 0.282656 15.7258C0.909108 15.7546 1.53423 15.7847 2.16201 15.8093C2.73803 15.8326 3.31272 15.849 3.88874 15.875C4.71693 15.912 5.5438 15.9558 6.37199 15.99C6.96659 16.0147 7.56251 16.0284 8.15711 16.053C9.08352 16.0913 10.0099 16.1324 10.935 16.1707C11.4712 16.194 12.0074 16.2118 12.5436 16.235C13.47 16.2734 14.3951 16.3144 15.3202 16.3514C15.8962 16.3747 16.4709 16.3925 17.0469 16.4144C18.0516 16.4527 19.055 16.4938 20.0597 16.5321C20.4101 16.5458 20.7605 16.5567 21.1135 16.5663C21.8754 16.5869 22.6359 16.6074 23.3964 16.6197C23.4295 16.6211 23.4587 16.6211 23.4826 16.6197C23.7826 15.7217 23.983 14.7772 24.0746 13.7984C23.7746 13.7615 23.4747 13.7218 23.1721 13.6944C22.0625 13.6013 20.9543 13.5028 19.8447 13.4247Z" fill="white"/>
<path d="M23.638 9.06202C23.5995 9.05517 23.553 9.0538 23.4973 9.0497C22.1355 8.95661 20.7738 8.85531 19.4107 8.78276C18.2414 8.72253 17.0695 8.68147 15.8989 8.66504C14.8557 8.64998 13.8098 8.67736 12.7653 8.69105C12.4229 8.69515 12.0818 8.70337 11.742 8.7239C10.7678 8.77866 9.79363 8.82246 8.82077 8.90322C7.49885 9.01547 6.17825 9.13868 4.86032 9.29336C3.84233 9.41382 2.83098 9.58493 1.81963 9.7492C1.25689 9.84091 0.69945 9.95864 0.140686 10.075C0.0849424 10.3611 0.0371624 10.6527 0 10.947C1.55684 10.9976 23.5145 11.6889 24.1012 11.7026C24.0388 10.7909 23.8822 9.90662 23.638 9.06202Z" fill="white"/>
<path d="M20.9954 4.22167C20.7486 4.20662 20.5043 4.1765 20.2575 4.16829C19.0577 4.1327 17.8578 4.09163 16.658 4.07931C15.7117 4.06836 14.7641 4.08752 13.8191 4.10669C12.9604 4.12722 12.1016 4.13954 11.2456 4.20388C10.002 4.29833 8.75968 4.42427 7.5174 4.55705C5.81722 4.73912 2.63983 5.42082 2.00409 5.55908C1.84747 5.79316 1.70015 6.03271 1.56079 6.27774C4.24445 6.37767 21.2237 6.97451 22.8588 7.02652C22.3651 6.00396 21.7347 5.0608 20.9954 4.22167Z" fill="white"/>
<path d="M21.0432 18.6456C19.7439 18.5142 18.4419 18.3335 17.1385 18.2938C15.1888 18.2363 13.2325 18.2322 11.2841 18.3759C10.0777 18.4649 8.87519 18.5936 7.67404 18.7291C5.83716 18.9358 4.02814 19.2958 2.23903 19.7667C2.20054 19.7763 2.16471 19.7872 2.12622 19.7982C2.24567 19.9707 2.36778 20.1404 2.49652 20.3061C2.76329 20.3115 3.03006 20.3238 3.29684 20.3334C3.83304 20.354 4.36924 20.3731 4.90411 20.3978C5.7124 20.4347 6.52201 20.4785 7.33029 20.5128C7.93418 20.5374 8.53807 20.5511 9.14329 20.5757C10.225 20.6223 11.3053 20.677 12.387 20.7222C13.2643 20.7592 14.143 20.7811 15.0203 20.8167C16.1696 20.8632 17.319 20.9193 18.4697 20.9618C19.2873 20.9932 20.1049 21.0056 20.9211 21.0343C21.5117 20.3786 22.032 19.6586 22.4713 18.8838C22.4262 18.8701 22.3851 18.8578 22.3426 18.8509C21.9112 18.7784 21.4799 18.6894 21.0432 18.6456Z" fill="white"/>
<path d="M18.767 2.11493C18.5493 1.96299 18.3263 1.81925 18.098 1.68373C16.3103 0.61326 14.2305 0 12.0127 0C9.79356 0 7.71379 0.61326 5.92734 1.68373C5.68844 1.82609 5.45485 1.97804 5.22656 2.13547H18.7696V2.11493H18.767Z" fill="white"/>
<path d="M6.17019 23.3833C7.87436 24.3498 9.82937 24.9055 11.9091 24.9233H12.1175C14.1973 24.9055 16.1523 24.3498 17.8565 23.3833C18.1697 23.2067 18.4749 23.0151 18.7696 22.8098V22.7865H5.22388C5.52914 23.0014 5.84502 23.1999 6.17019 23.3833Z" fill="white"/>
<path d="M37.0245 6.36261C34.9075 6.36261 33.141 7.62336 32.4123 9.61098V6.56794H29.5654V20.1049H32.4123V13.73C32.5583 12.3816 33.0733 11.2714 33.9426 10.4268C34.8106 9.58634 35.8724 9.15924 37.0988 9.15924C37.4054 9.15924 37.6297 9.18662 37.7903 9.20989L37.8712 9.22221V6.42147L37.8102 6.41189C37.5726 6.37903 37.3151 6.36261 37.0245 6.36261Z" fill="white"/>
<path d="M48.2104 6.77877C47.4419 6.46803 46.6601 6.31061 45.8864 6.31061C45.1139 6.31061 44.3189 6.46803 43.5266 6.77877C41.6976 7.48785 40.4036 8.67057 39.6802 10.2927C38.8507 12.1284 38.8507 14.5951 39.6802 16.4322C40.4062 18.0392 41.7003 19.2124 43.5266 19.9215C44.3202 20.2185 45.1139 20.3705 45.8864 20.3705C46.6588 20.3705 47.4406 20.2199 48.209 19.9215C50.0433 19.2329 51.3453 18.0598 52.0806 16.4322C52.9101 14.5965 52.9101 12.1284 52.0806 10.2941C51.3373 8.62814 50.0711 7.47827 48.2104 6.77877ZM48.6855 16.58C47.8852 17.3534 46.9415 17.7449 45.8797 17.7449C44.81 17.7449 43.8836 17.3644 43.0488 16.58C42.2325 15.7915 41.8184 14.7087 41.8184 13.3631C41.8184 11.9805 42.2206 10.9197 43.0474 10.1202C43.9022 9.31805 44.8286 8.92929 45.8797 8.92929C46.9243 8.92929 47.8679 9.33037 48.6868 10.1202C49.5309 10.9114 49.9411 11.9723 49.9411 13.3631C49.9411 14.7361 49.5309 15.7874 48.6855 16.58Z" fill="white"/>
<path d="M60.5653 6.31057C59.0191 6.31057 57.4636 6.91973 56.1868 8.02716C54.8383 9.19619 54.0327 11.1811 54.0327 13.3371C54.0327 15.4917 54.8383 17.4766 56.1868 18.647C57.4636 19.7544 59.0191 20.3636 60.5653 20.3636C62.7473 20.3636 64.3546 19.1028 64.9412 17.9174H64.9771V25H67.824V6.27087L64.9187 8.71023C64.3108 7.5371 62.7181 6.31057 60.5653 6.31057ZM60.9157 17.7449C59.8287 17.7449 58.8585 17.3534 58.0343 16.58C57.2075 15.7805 56.8053 14.7197 56.8053 13.3371C56.8053 11.9545 57.2075 10.8936 58.0343 10.0942C58.8585 9.32076 59.8287 8.92925 60.9157 8.92925C62.028 8.92925 62.9968 9.32076 63.7971 10.0942C64.6413 10.8854 65.0514 11.9463 65.0514 13.3371C65.0514 14.7279 64.6413 15.7874 63.7971 16.58C62.9968 17.352 62.028 17.7449 60.9157 17.7449Z" fill="white"/>
<path d="M76.3024 6.31057C74.7562 6.31057 73.2007 6.91973 71.9239 8.02716C70.5754 9.19619 69.7698 11.1811 69.7698 13.3371C69.7698 15.4917 70.5754 17.4766 71.9239 18.647C73.2007 19.7544 74.7562 20.3636 76.3024 20.3636C78.4844 20.3636 80.0916 19.1028 80.6783 17.9174H80.7141V25H83.561V6.27087L80.6557 8.71023C80.0492 7.5371 78.4552 6.31057 76.3024 6.31057ZM76.6528 17.7449C75.5658 17.7449 74.5956 17.3534 73.7714 16.58C72.9445 15.7805 72.5424 14.7197 72.5424 13.3371C72.5424 11.9545 72.9445 10.8936 73.7714 10.0942C74.5956 9.32076 75.5658 8.92925 76.6528 8.92925C77.765 8.92925 78.7339 9.32076 79.5355 10.0942C80.3797 10.8854 80.7898 11.9463 80.7898 13.3371C80.7898 14.7279 80.3797 15.7888 79.5355 16.58C78.7339 17.352 77.765 17.7449 76.6528 17.7449Z" fill="white"/>
<path d="M95.1531 6.56796V14.6417C95.0801 15.3165 94.7165 16.0215 94.0701 16.7374C93.4529 17.4219 92.6447 17.7696 91.6678 17.7696C89.7672 17.7696 88.6338 16.4486 88.6338 14.2378V6.56796H85.7869V14.3925C85.7869 16.335 86.274 17.8339 87.2349 18.8469C88.1878 19.853 89.3677 20.3622 90.7414 20.3622C93.4622 20.3622 94.8731 18.3034 95.25 17.3808L98 19.8421V6.56659H95.1531V6.56796Z" fill="white"/>
</svg>
